<?xml version="1.0" encoding="UTF-8"?> <svg xmlns="http://www.w3.org/2000/svg" xmlns:xlink="http://www.w3.org/1999/xlink" xml:space="preserve" width="140mm" height="45mm" version="1.0" style="shape-rendering:geometricPrecision; text-rendering:geometricPrecision; image-rendering:optimizeQuality; fill-rule:evenodd; clip-rule:evenodd" viewBox="0 0 14000 4500"> <defs> <style type="text/css"> .fil0 {fill:#262626;fill-rule:nonzero} .fil1 {fill:url(#id0)} .fil2 {fill:url(#id1)} .fil3 {fill:url(#id2)} .fil4 {fill:url(#id3)} </style> <linearGradient id="id0" gradientUnits="userSpaceOnUse" x1="1603.34" y1="-306.57" x2="1603.34" y2="3381.98"> <stop offset="0" style="stop-opacity:1; stop-color:#8CC63F"></stop> <stop offset="1" style="stop-opacity:1; stop-color:#39B54A"></stop> </linearGradient> <linearGradient id="id1" gradientUnits="userSpaceOnUse" xlink:href="#id0" x1="1603.36" y1="-308.1" x2="1603.36" y2="3383.98"> </linearGradient> <linearGradient id="id2" gradientUnits="userSpaceOnUse" xlink:href="#id0" x1="1603.36" y1="-308.29" x2="1603.36" y2="3382.39"> </linearGradient> <linearGradient id="id3" gradientUnits="userSpaceOnUse" x1="1575.63" y1="3144.52" x2="1575.63" y2="1452.41"> <stop offset="0" style="stop-opacity:1; stop-color:#8C6239"></stop> <stop offset="1" style="stop-opacity:1; stop-color:#C7B299"></stop> </linearGradient> </defs> <g id="Layer_x0020_1"> <metadata id="CorelCorpID_0Corel-Layer"></metadata> <g id="_1926351675152"> <path class="fil0" d="M8656.33 3267.07l-20.04 158.99c-87,-86.53 -190.61,-129.73 -310.83,-129.73 -106.01,0 -191.63,36.84 -256.86,110.64 -65.82,73.47 -98.72,169.03 -98.72,286.93 0,110.31 31.65,196.39 94.72,258.35 62.74,61.52 151.45,92.23 266.1,92.23 95.52,0 179.9,-28.81 252.98,-86.52l-21.41 172.49c-92.09,33.5 -177.96,50.24 -257.53,50.24 -145.39,0 -262.34,-45.22 -351.03,-135.55 -88.69,-89.41 -132.99,-208.67 -132.99,-357.61 0,-151.84 47.15,-277.77 141.42,-377.82 94.73,-100.14 213.71,-150.16 356.83,-150.16 112.94,0 225.32,35.83 337.36,107.52z"></path> <path class="fil0" d="M9383.08 3856.12c0,91.67 -32.45,168.71 -97.36,231.01 -64.44,62.29 -144.03,93.56 -238.75,93.56 -99.06,0 -179.9,-29.49 -242.64,-88.42 -63.19,-59.41 -94.72,-134.55 -94.72,-225.32 0,-92.89 32.56,-170.03 97.91,-231.54 65.82,-61.97 148.02,-92.91 246.63,-92.91 96.88,0 175.78,29.25 236.81,87.76 61.37,57.72 92.12,132.98 92.12,225.86zm-144.72 -6.92c0,-57.72 -17.08,-103.27 -51.24,-136.77 -34.15,-34.83 -79.02,-52.25 -134.34,-52.25 -57.51,0 -105.09,19.32 -142.66,57.95 -37.69,38.96 -56.49,87.98 -56.49,146.94 0,59.38 17.77,107.17 53.18,143.23 35.4,36.84 81.3,55.27 137.54,55.27 56.25,0 102.59,-20.1 138.91,-60.41 36.66,-39.85 55.1,-91.2 55.1,-153.96z"></path> <path class="fil0" d="M9725.68 3562.27l-6.49 55.38c56.59,-46.67 113.96,-70.01 171.93,-70.01 59.65,0 107.46,16.29 143.33,49.02 35.08,32.6 52.61,77.14 52.61,133.54 0,30.57 -2.61,66.97 -7.85,109.4l-40.88 322 -142.78 0 44.18 -352.48c1.7,-13.18 2.96,-24.78 3.52,-35.06 0.69,-10.15 1.03,-19.21 1.03,-27.35 0,-54.27 -29.84,-81.39 -89.49,-81.39 -36.78,0 -68.43,11.06 -94.84,33.04 -21.53,17.42 -37.57,38.65 -47.94,63.65 -5.7,12.73 -10.37,28.35 -14.34,46.78 -3.76,18.43 -7.28,39.75 -10.37,63.98l-36.32 288.83 -143.34 0 75.26 -599.33 142.78 0z"></path> <path class="fil0" d="M10678.09 3628.36l-81.19 79.6c-38.03,-33.48 -73.32,-50.22 -105.77,-50.22 -21.98,0 -40.3,6.01 -54.76,18.08 -14.46,12.04 -21.74,27.02 -21.74,44.87 0,17.42 6.03,32.05 18.2,43.88 12.07,12.28 37.35,28.81 75.83,49.69 55,30.03 91.78,57.62 110.34,82.62 19.92,24.68 29.83,56.6 29.83,96.13 0,56.83 -20.04,102.38 -60.36,136.78 -41.09,33.93 -94.49,50.9 -160.19,50.9 -89.49,0 -163.72,-39.75 -222.59,-119.02l94.17 -64.31c38.48,45.44 79.47,68.11 123.17,68.11 24.72,0 44.42,-6.36 59.46,-19.09 14.89,-12.74 22.31,-29.25 22.31,-49.58 0,-17.85 -6.27,-32.27 -18.79,-43.32 -6.04,-5.48 -16.62,-13.06 -31.78,-22.88 -15.13,-9.72 -35.75,-21.34 -61.58,-34.96 -45.88,-25 -77.66,-49.45 -95.42,-73.12 -17.77,-25.12 -26.63,-55.6 -26.63,-91.66 0,-54.27 20.38,-99.26 61.01,-134.88 40.66,-35.62 92.35,-53.48 155.07,-53.48 69.25,0 132.99,28.69 191.41,85.86z"></path> <path class="fil0" d="M11376.83 3562.27l-43.49 348.56c-3.42,29.71 -7.73,55.61 -12.97,77.72 -5.13,21.98 -10.83,40.53 -16.86,55.25 -12.07,28.48 -32.45,53.7 -61.03,75.82 -48.38,37.29 -112.14,55.93 -191.4,55.93 -75.26,0 -135.36,-18.86 -180.35,-56.61 -44.97,-38.18 -67.38,-89.32 -67.38,-153.4 0,-9.72 0.45,-21.11 1.58,-34.28 1.03,-13.17 2.61,-28.24 4.79,-45.22l40.3 -323.77 143.35 0 -42.14 336.52c-1.7,14.51 -3.06,27 -3.86,37.83 -0.91,10.84 -1.36,19.88 -1.36,27.02 0,63.3 37.91,94.79 113.62,94.79 40.99,0 71.28,-10.38 90.75,-31.14 19.47,-20.77 32.45,-57.17 38.94,-109.41l44.75 -355.61 142.76 0z"></path> <path class="fil0" d="M11780.45 3086.98l-134.34 1074.62 -143.35 0 134.92 -1074.62 142.77 0z"></path> <path class="fil0" d="M12058.71 3692.68l-58.97 468.92 -143.46 0 59.1 -468.92 -81.08 0 16.16 -130.41 81.08 0 35.08 -278.01 143.45 0 -35.08 278.01 132.32 0 -16.18 130.41 -132.42 0z"></path> <path class="fil0" d="M12454.49 3562.27l-75.25 599.33 -143.36 0 75.26 -599.33 143.35 0zm44.86 -285.03c0,20.31 -7.62,37.94 -22.78,52.8 -15.13,14.84 -33.35,22.22 -54.52,22.22 -21.19,0 -39.51,-7.59 -55.12,-22.9 -15.14,-16.08 -22.65,-34.61 -22.65,-55.36 0,-20.78 7.28,-38.3 21.98,-52.81 15.13,-14.86 33.14,-22.24 53.85,-22.24 21.29,0 39.63,7.82 55.22,23.58 15.94,15.28 24.02,33.48 24.02,54.71z"></path> <path class="fil0" d="M12797.77 3562.27l-6.49 55.38c56.58,-46.67 113.96,-70.01 171.93,-70.01 59.64,0 107.46,16.29 143.33,49.02 35.08,32.6 52.61,77.14 52.61,133.54 0,30.57 -2.61,66.97 -7.86,109.4l-40.75 322 -142.78 0 44.05 -352.48c1.71,-13.18 2.97,-24.78 3.65,-35.06 0.57,-10.15 0.91,-19.21 0.91,-27.35 0,-54.27 -29.84,-81.39 -89.49,-81.39 -36.78,0 -68.43,11.06 -94.73,33.04 -21.64,17.42 -37.68,38.65 -48.05,63.65 -5.58,12.73 -10.37,28.35 -14.23,46.78 -3.87,18.43 -7.4,39.75 -10.36,63.98l-36.43 288.83 -143.35 0 75.26 -599.33 142.78 0z"></path> <path class="fil0" d="M14000 3562.27l-75.26 603.8c-4.79,35.94 -10.03,67.43 -15.83,94.11 -5.94,26.69 -12.52,49.24 -19.82,67.43 -15.14,37.31 -37.69,69.34 -67.51,96.03 -57.97,51.03 -133.23,76.36 -225.78,76.36 -95.65,0 -173.07,-24.56 -232.28,-73.79 -30.27,-24.57 -51.46,-52.6 -63.53,-83.97 -12.19,-28.81 -18.22,-69.34 -18.22,-121.47l138.81 0c3.52,56.38 18.2,97.47 44.17,123.04 25.96,25.67 66.14,38.51 120.69,38.51 58.86,0 103.61,-15.4 134.23,-46.11 30.75,-30.81 50.22,-79.6 58.41,-146.71l10.48 -82.04c-60.7,45.43 -124.22,68.09 -190.84,68.09 -82.99,0 -151.64,-27.8 -205.61,-83.28 -54.09,-56.83 -81.18,-127.74 -81.18,-212.59 0,-95.34 31.42,-174.51 94.15,-237.25 63.08,-63.19 141.98,-94.79 236.82,-94.79 45.43,0 82.11,6.59 110.22,19.65 30.74,12.73 62.5,35.83 95.42,69.45l9.1 -74.47 143.36 0zm-164.77 284.37c0,-54.27 -16.85,-98.03 -50.66,-131.07 -33.7,-33.51 -77.88,-50.25 -132.3,-50.25 -56.7,0 -103.85,20.31 -141.42,61.07 -37.23,40.3 -55.89,90.99 -55.89,152.06 0,53.49 16.05,97.14 48.04,131.07 32.44,32.62 75.26,48.91 128.55,48.91 59.2,0 107.81,-19.86 145.85,-59.73 38.6,-40.3 57.83,-90.99 57.83,-152.06z"></path> <path class="fil0" d="M4275.89 2716.97l-563.02 0 0 -1041.01 -159.75 0 0 -443.68 159.75 0 0 -436.67 563.02 0 0 436.67 186.27 0 0 443.68 -186.27 0 0 1041.01z"></path> <path class="fil0" d="M5999.9 2716.97l-561.53 0 0 -785.56c0,-67.77 -6.85,-114.89 -20.38,-141.45 -13.45,-26.58 -37.13,-39.87 -70.71,-39.87 -78.44,0 -117.61,72.79 -117.61,218.39l0 748.49 -561.66 0 0 -2319.61 561.66 0 0 829.44c0,44.88 -0.24,82.51 -0.7,112.64 -0.55,30.27 -1.24,53.16 -2.15,68.68 -0.91,15.62 -2.28,32.03 -4.22,49.45 -1.82,17.42 -3.64,36.63 -5.58,57.74 90.52,-209.68 223.17,-314.52 397.83,-314.52 121.37,0 215.64,44.43 282.81,133.18 68.2,88.78 102.24,212.48 102.24,370.8l0 1012.2z"></path> <path class="fil0" d="M7033.63 2214.32l549.01 10.95c-39.27,173.07 -115.56,303.36 -229.08,390.78 -113.4,87.42 -261.65,131.19 -444.61,131.19 -216.66,0 -386.55,-65.99 -509.84,-197.85 -122.29,-133.65 -183.44,-316.3 -183.44,-547.97 0,-235.24 65.82,-427.06 197.43,-575.43 131.74,-149.29 301.61,-223.86 509.86,-223.86 207.22,0 372.53,71.9 495.73,215.59 123.31,144.69 184.9,336.5 184.9,575.44l-2.73 97.58 -823.52 0c6.49,151.95 50.43,227.98 131.61,227.98 63.43,0 105.09,-34.83 124.68,-104.4zm12.52 -420.23c0,-27.47 -3.18,-52.71 -9.79,-75.58 -6.49,-22.89 -15.59,-42.55 -27.32,-59.08 -11.62,-16.41 -25.39,-29.47 -41.21,-39.07 -15.95,-9.72 -33.26,-14.51 -51.94,-14.51 -39.15,0 -70.92,17.64 -95.18,52.92 -24.25,35.27 -36.42,80.38 -36.42,135.32l261.86 0z"></path> <path class="fil0" d="M8382.4 2716.97l-561.68 0 0 -1484.69 561.68 0 -29.5 289.84c84.93,-216.94 225.56,-325.46 421.62,-325.46l0 617.98c-61.61,-32.94 -113.98,-49.47 -156.91,-49.47 -75.6,0 -133.78,26.79 -174.32,80.39 -40.64,53.59 -60.89,131.63 -60.89,234.13l0 637.28z"></path> <path class="fil0" d="M8887.92 2594.73l204.49 -411.99c100.88,103.5 194.7,155.19 281.57,155.19 72.74,0 109.19,-25.69 109.19,-76.93 0,-44 -49.09,-83.28 -147.12,-118.13 -264.14,-91.55 -396.33,-236.68 -396.33,-435.3 0,-145.6 58.87,-266.53 176.47,-362.66 118.65,-96.12 266.55,-144.12 444.06,-144.12 145.61,0 295.91,40.29 450.98,120.81l-191.97 402.38c-94.27,-86.99 -171.35,-130.41 -231,-130.41 -58.88,0 -88.26,23.34 -88.26,70 0,50.36 56.03,97.58 168.07,141.46 140.03,54.03 235.23,111.3 285.66,171.72 53.28,60.39 79.81,143.68 79.81,249.97 0,152.86 -56.46,277.89 -169.41,374.91 -112.95,97.03 -258.22,145.61 -435.63,145.61 -84.93,0 -169.41,-10.62 -253.43,-31.61 -39.17,-10.05 -82.21,-25.45 -128.9,-46 -46.67,-20.66 -99.39,-45.55 -158.25,-74.9z"></path> <path class="fil0" d="M10831.89 772.27c0,86.97 -32.2,162.02 -96.66,225.2 -66.26,62.3 -143.34,93.45 -231.12,93.45 -90.53,0 -168.07,-31.6 -232.5,-94.79 -63.41,-64.97 -95.19,-141.02 -95.19,-227.99 0,-88.87 31.78,-164.34 95.19,-226.64 66.37,-62.19 143.35,-93.33 231.14,-93.33 92.45,0 170.44,31.58 233.96,94.67 63.43,62.3 95.18,138.77 95.18,229.43zm-47.58 1944.7l-563.03 0 0 -1484.69 563.03 0 0 1484.69z"></path> <path class="fil0" d="M11822.13 2716.97c0.91,-15.52 1.82,-33.39 2.73,-53.58 1.01,-20.1 2.38,-43.44 4.22,-70.02 1.92,-16.51 3.28,-41.63 4.19,-75.58 -54.07,86.08 -106.89,146.16 -158.25,179.97 -50.43,32.95 -112.5,49.48 -186.27,49.48 -152.22,0 -271.66,-66.88 -358.53,-200.53 -85.86,-133.76 -128.77,-319.54 -128.77,-557.68 0,-249.88 42,-443.59 126.04,-580.91 84.02,-138.23 202.55,-207.33 355.68,-207.33 84.02,0 151.76,18.31 203.12,54.92 54.07,36.63 106.46,100.26 156.89,190.92 -2.85,-47.67 -4.21,-76.48 -4.21,-86.52l-5.7 -149.72 0 -813.03 563.04 0 0 2319.61 -574.18 0zm-239.56 -748.49c0,203.32 46.23,304.92 138.68,304.92 86.88,0 130.24,-104.84 130.24,-314.52 0,-200.52 -42,-300.78 -126.02,-300.78 -95.2,0 -142.9,103.5 -142.9,310.38z"></path> <path class="fil0" d="M13430.03 2214.32l549.01 10.95c-39.29,173.07 -115.56,303.36 -229.08,390.78 -113.4,87.42 -261.64,131.19 -444.61,131.19 -216.67,0 -386.54,-65.99 -509.86,-197.85 -122.28,-133.65 -183.41,-316.3 -183.41,-547.97 0,-235.24 65.8,-427.06 197.42,-575.43 131.63,-149.29 301.61,-223.86 509.86,-223.86 207.22,0 372.54,71.9 495.73,215.59 123.3,144.69 184.91,336.5 184.91,575.44l-2.73 97.58 -823.66 0c6.61,151.95 50.45,227.98 131.74,227.98 63.41,0 104.98,-34.83 124.68,-104.4zm12.53 -420.23c0,-27.47 -3.31,-52.71 -9.8,-75.58 -6.49,-22.89 -15.61,-42.55 -27.34,-59.08 -11.61,-16.41 -25.38,-29.47 -41.33,-39.07 -15.83,-9.72 -33.12,-14.51 -51.79,-14.51 -39.18,0 -70.95,17.64 -95.18,52.92 -24.26,35.27 -36.45,80.38 -36.45,135.32l261.89 0z"></path> <path class="fil1" d="M3206.67 1572.25c0,-866.97 -719.23,-1572.25 -1603.35,-1572.25 -884.09,0 -1603.33,705.28 -1603.33,1572.25 0,706.27 477.4,1305.16 1132.43,1502.89l55.79 -481.21c-413.76,-162.22 -707.28,-558.69 -707.28,-1021.68 0,-606.83 503.59,-1100.65 1122.39,-1100.65 618.93,0 1122.42,493.82 1122.42,1100.65 0,476.63 -311.07,882.14 -744.06,1034.97l38.48 483.11c682.57,-180.42 1186.51,-792.49 1186.51,-1518.08z"></path> <path class="fil2" d="M803.37 1572.25c0,-432.53 358.89,-784.46 799.97,-784.46 441.07,0 799.96,351.93 799.96,784.46 0,308.58 -183.08,575.32 -447.92,703.26l12.65 159.55c344.87,-140.67 588.06,-474.28 588.06,-862.81 0,-515.16 -427.42,-934.17 -952.75,-934.17 -525.34,0 -952.64,419.01 -952.64,934.17 0,376.91 229.08,701.48 557.55,849.08l18.32 -157.53c-251.61,-132.31 -423.2,-392.57 -423.2,-691.55z"></path> <path class="fil3" d="M2240.59 1572.25c0,-344.55 -285.9,-624.91 -637.25,-624.91 -351.36,0 -637.26,280.36 -637.26,624.91 0,215.13 111.46,405.16 280.65,517.6l20.5 -176.31c-91.3,-86.41 -148.36,-207.33 -148.36,-341.29 0,-261.95 217.35,-475.08 484.47,-475.08 267.11,0 484.46,213.13 484.46,475.08 0,139.66 -62.16,265.16 -160.43,352.14l14.13 176.62c179.32,-110.64 299.09,-306.03 299.09,-528.76z"></path> <path class="fil4" d="M1603.34 3144.48c83.57,0 165.78,-6.37 245.92,-18.43l-123.65 -1553.8c0,-66.21 -54.76,-119.82 -122.27,-119.82 -67.52,0 -122.16,53.61 -122.16,119.82l-179.11 1543.98c97.58,18.32 198.22,28.25 301.27,28.25z"></path> </g> </g> </svg> 