<svg id="New_Layer" data-name="New Layer" xmlns="http://www.w3.org/2000/svg" viewBox="0 0 38.21 13.67"><defs><style>.cls-1{fill:#e92529;}.cls-1,.cls-2,.cls-3{fill-rule:evenodd;}.cls-2{fill:#3e4398;}.cls-3{fill:#727272;}</style></defs><title>Techno-Growth-logo</title><path class="cls-1" d="M22,1.91a5.19,5.19,0,0,0-1.18.27l-.27.1V4.52h4.89V6.69H20.55l0,.21a2.88,2.88,0,0,0,0,.58c.18,1.76,1.34,2.88,3.38,3.25a11.74,11.74,0,0,0,1.38.14h.13V7.37h.22l1,0c.45,0,.82,0,.83,0a7,7,0,0,0-.05-1.39,5,5,0,0,0-2.33-3.44A5.13,5.13,0,0,0,22,1.91Z" transform="translate(-17.49 -1.89)"/><path class="cls-2" d="M19.51,2.86a6.37,6.37,0,0,0-.83.79,4.69,4.69,0,0,0-1.16,3.6,4.8,4.8,0,0,0,.83,2.36,7,7,0,0,0,1.34,1.32,3.81,3.81,0,0,0,.81.44l-.45-.66-.46-.64v-.4c0-.48.06-4.45.09-5.87a8.58,8.58,0,0,0,0-1Z" transform="translate(-17.49 -1.89)"/><path class="cls-2" d="M42.14,8.36a1,1,0,0,0-.54.5,4.85,4.85,0,0,0-.06,1.43v1.27l.09.2a1,1,0,0,0,.56.47.7.7,0,0,0,.78-.15l.14-.13,0,.09a.35.35,0,0,1,0,.12.82.82,0,0,0,.32,0h.33v-2H42.67v.58h.22l0,.38c0,.44,0,.5-.16.53a.14.14,0,0,1-.15-.06c-.05-.07-.06-.16-.06-1.3a10.46,10.46,0,0,1,0-1.28.14.14,0,0,1,.13-.07c.09,0,.11,0,.14.13a2.19,2.19,0,0,1,0,.42v.3h1V9.57a1.92,1.92,0,0,0-.14-.77.94.94,0,0,0-.56-.44A1.67,1.67,0,0,0,42.14,8.36Z" transform="translate(-17.49 -1.89)"/><polygon class="cls-1" points="9.19 6.84 9.19 7.21 9.49 7.22 9.79 7.23 9.8 8.77 9.8 10.3 10.3 10.3 10.79 10.3 10.79 8.76 10.79 7.21 11.08 7.21 11.37 7.21 11.37 6.84 11.37 6.47 10.28 6.47 9.19 6.47 9.19 6.84"/><path class="cls-1" d="M33.85,10.27v1.92h.95V10.92c0-1.11,0-1.28.05-1.32a.12.12,0,0,1,.2,0c.05,0,.05.21.05,1.32v1.27h1V10.8c0-1.59,0-1.54-.33-1.71a.63.63,0,0,0-.4-.08.84.84,0,0,0-.37.1l-.15.1V8.35h-.95Z" transform="translate(-17.49 -1.89)"/><path class="cls-2" d="M53.3,10.27v1.92h.94V10.9c0-1.1,0-1.3.06-1.32a.13.13,0,0,1,.19,0s0,.21,0,1.32v1.27h1v-1.3c0-.71,0-1.36,0-1.43-.07-.3-.29-.44-.66-.44a.61.61,0,0,0-.4.09l-.16.09V8.35h-1Z" transform="translate(-17.49 -1.89)"/><path class="cls-2" d="M51.84,8.88v.25h-.21v.48h.21v1.07c0,1.19,0,1.27.21,1.42s.16.07.58.08l.46,0v-.48l-.13,0c-.07,0-.14,0-.15-.07s0-.5,0-1v-1h.27V9.13h-.27v-.5h-.95Z" transform="translate(-17.49 -1.89)"/><path class="cls-1" d="M29.5,9.06a1,1,0,0,0-.57.55,10,10,0,0,0,0,1.83c.09.52.4.77,1,.81A1,1,0,0,0,31,11.73a1.14,1.14,0,0,0,.1-.5l0-.33h-.93v.35c0,.3,0,.36-.07.41a.21.21,0,0,1-.12.05c-.12,0-.15-.16-.14-.61v-.42h1.24v-.31c0-.73-.15-1-.58-1.24A1.58,1.58,0,0,0,29.5,9.06Zm.58.57a1.13,1.13,0,0,1,0,.32v.24h-.29V9.92c0-.32,0-.38.13-.38A.12.12,0,0,1,30.08,9.63Z" transform="translate(-17.49 -1.89)"/><path class="cls-1" d="M32.08,9a1,1,0,0,0-.65.58,5.46,5.46,0,0,0,0,1c0,.95,0,1.13.24,1.36a1,1,0,0,0,.83.29.87.87,0,0,0,.72-.22,1.18,1.18,0,0,0,.22-.27.83.83,0,0,0,.1-.5l0-.35h-.81l0,.33a1.87,1.87,0,0,1,0,.39c0,.1-.15.11-.23,0s-.07-.1-.07-1.06,0-1,.14-1.05.15.11.15.4v.28h.89l0-.28a.82.82,0,0,0-.56-.85A1.79,1.79,0,0,0,32.08,9Z" transform="translate(-17.49 -1.89)"/><path class="cls-1" d="M37.7,9.06a1.06,1.06,0,0,0-.23.17l-.09.12V9h-1v3.16h1V10.93a12.7,12.7,0,0,1,0-1.32.13.13,0,0,1,.24,0s0,.6,0,1.32v1.24h1V11c0-1.27,0-1.58-.12-1.72A.71.71,0,0,0,37.7,9.06Z" transform="translate(-17.49 -1.89)"/><path class="cls-1" d="M39.59,9.06a.79.79,0,0,0-.5.44l-.1.19v.88c0,.95,0,1.15.18,1.38a1.44,1.44,0,0,0,1.59.13.89.89,0,0,0,.35-.49,4.31,4.31,0,0,0,0-1.05,3,3,0,0,0-.07-1,1,1,0,0,0-.47-.44A1.73,1.73,0,0,0,39.59,9.06Zm.57.53a4.82,4.82,0,0,1,0,1.06c0,.92,0,1-.07,1a.09.09,0,0,1-.12,0s-.06-.12-.07-1,0-1.11.13-1.11A.14.14,0,0,1,40.16,9.59Z" transform="translate(-17.49 -1.89)"/><path class="cls-2" d="M45.5,9.06a.84.84,0,0,0-.25.22l-.11.16a1.11,1.11,0,0,1,0-.2l0-.21h-.93v3.16h1V11.3a4.89,4.89,0,0,1,0-1,.37.37,0,0,1,.32-.19c.19,0,.19,0,.19-.58S45.73,9,45.5,9.06Z" transform="translate(-17.49 -1.89)"/><path class="cls-2" d="M46.59,9.06a.83.83,0,0,0-.51.44l-.1.19v1A4.23,4.23,0,0,0,46,11.71c.14.36.4.51.91.54a1.06,1.06,0,0,0,1.11-.52c.07-.13.07-.19.08-1.06s0-.92-.07-1.1a1,1,0,0,0-1-.56A1.16,1.16,0,0,0,46.59,9.06Zm.56.52a4.82,4.82,0,0,1,0,1.05c0,1,0,1.08-.15,1.08s-.12-.11-.12-1.11,0-1.06.13-1.06A.21.21,0,0,1,47.15,9.58Z" transform="translate(-17.49 -1.89)"/><path class="cls-2" d="M48.32,9.14c0,.11.39,3,.39,3a3.74,3.74,0,0,0,.53,0h.52l.07-.45c0-.25.08-.53.09-.62,0-.43.06-.42.16.31.05.39.09.72.09.73a3.76,3.76,0,0,0,1.06,0s.08-.72.18-1.56.19-1.54.19-1.54a2.13,2.13,0,0,0-.4,0h-.41l0,.09c-.05.24-.16,1.05-.18,1.36s-.05.35-.14-.58c0-.4-.08-.75-.09-.79S50.33,9,50,9a1,1,0,0,0-.39,0c0,.09-.2,1.71-.22,1.72s0,0,0,0-.17-1.56-.19-1.65,0-.08-.43-.08H48.3Z" transform="translate(-17.49 -1.89)"/><path class="cls-3" d="M21,13.55a.56.56,0,0,0-.34.52c0,.32.15.48.59.63.24.08.33.15.33.27a.22.22,0,0,1-.25.21.26.26,0,0,1-.26-.23c0-.09,0-.09-.24-.08a.75.75,0,0,0-.23,0s.07.34.15.45.27.21.57.21c.47,0,.73-.23.73-.66s-.18-.53-.62-.66c-.29-.09-.35-.13-.32-.26s.34-.14.41,0,.06.1.08.09l.22,0c.15,0,.16,0,.16-.07a.57.57,0,0,0-.28-.44A1.28,1.28,0,0,0,21,13.55Z" transform="translate(-17.49 -1.89)"/><path class="cls-3" d="M24.05,13.59c-.07.07-.09.12-.1.29s0,.21-.1.21-.08,0-.08.18,0,.19.08.2.07,0,.08.53v.52h.4v-1h.11c.11,0,.11,0,.11-.2v-.18h-.12c-.09,0-.11,0-.11-.07s.12-.21.19-.18.11-.05.11-.2v-.13H24.4C24.18,13.51,24.13,13.52,24.05,13.59Z" transform="translate(-17.49 -1.89)"/><path class="cls-3" d="M33.19,13.58a.45.45,0,0,0-.28.46c0,.34.1.5.54.65.28.09.36.16.36.28a.21.21,0,0,1-.24.21.26.26,0,0,1-.26-.23s0-.09-.05-.09h-.44l0,.14a.73.73,0,0,0,.33.48,1.26,1.26,0,0,0,.77,0,.66.66,0,0,0,.09-1.1,1.75,1.75,0,0,0-.36-.16c-.28-.09-.33-.12-.33-.23s.32-.19.4,0,0,.1.25.09l.23,0s0-.06,0-.13a.58.58,0,0,0-.32-.38A1.12,1.12,0,0,0,33.19,13.58Z" transform="translate(-17.49 -1.89)"/><path class="cls-3" d="M25.09,13.68c-.19.12-.2.13-.2.26s0,.15-.09.15-.08,0-.08.18,0,.19.08.2.07,0,.09.45a4.27,4.27,0,0,0,0,.5c.05.1.18.13.4.12s.26,0,.22-.25,0-.11-.12-.11-.14-.06-.13-.43v-.27h.26v-.37H25.3v-.53Z" transform="translate(-17.49 -1.89)"/><polygon class="cls-3" points="18.63 12.65 18.63 13.63 18.83 13.63 19.04 13.63 19.04 12.65 19.04 11.66 18.83 11.66 18.63 11.66 18.63 12.65"/><path class="cls-3" d="M38.71,13.68c-.2.13-.21.14-.21.27s0,.14-.09.14-.08,0-.08.19,0,.18.08.18h.09v.39c0,.59.06.7.42.7s.28,0,.26-.2,0-.17-.11-.18H39v-.7h.24v-.37h-.24v-.54Z" transform="translate(-17.49 -1.89)"/><polygon class="cls-3" points="21.96 11.83 21.96 12 22.18 12 22.4 12 22.4 11.83 22.4 11.66 22.18 11.66 21.96 11.66 21.96 11.83"/><path class="cls-3" d="M45.49,14.53v1H46v-.74h.27c.3,0,.41-.08.53-.28a.94.94,0,0,0,0-.7c-.11-.21-.21-.24-.79-.24h-.52Zm.85-.54a.25.25,0,0,1-.21.41H46v-.48h.14A.26.26,0,0,1,46.34,14Z" transform="translate(-17.49 -1.89)"/><path class="cls-3" d="M48.86,13.69c-.2.13-.21.14-.21.26s0,.14-.09.14-.08,0-.08.19,0,.18.08.18h.09v.37c0,.61.06.72.42.72a.69.69,0,0,0,.25,0s0-.08,0-.18,0-.16-.13-.17H49.1v-.7h.25v-.37h-.24v-.54Z" transform="translate(-17.49 -1.89)"/><polygon class="cls-3" points="33.66 12.65 33.66 13.63 34.31 13.63 34.95 13.63 34.95 13.39 34.95 13.15 34.55 13.15 34.14 13.15 34.14 12.41 34.14 11.66 33.9 11.66 33.66 11.66 33.66 12.65"/><path class="cls-3" d="M53,13.69c-.21.13-.22.14-.22.27s0,.13-.06.13-.07,0-.07.19,0,.18.06.18.07,0,.08.43c0,.62.08.67.49.65.22,0,.24,0,.2-.25s0-.11-.12-.11-.14-.06-.13-.43v-.27h.26v-.37H53.2v-.53Z" transform="translate(-17.49 -1.89)"/><path class="cls-3" d="M54.48,13.89v.35l-.08-.08a.42.42,0,0,0-.48,0,.71.71,0,0,0-.26.64.85.85,0,0,0,.2.68.29.29,0,0,0,.26.11.34.34,0,0,0,.28-.11l.12-.1v.09c0,.08,0,.09.2.09h.21v-2h-.45Zm0,.65a.7.7,0,0,1,0,.57.24.24,0,0,1-.13.07c-.17,0-.27-.35-.17-.59s.07-.13.16-.13A.16.16,0,0,1,54.43,14.54Z" transform="translate(-17.49 -1.89)"/><path class="cls-3" d="M22.65,14.13a.83.83,0,0,0-.16,1.24.55.55,0,0,0,.47.18c.41,0,.65-.27.65-.75a.66.66,0,0,0-.37-.68A.71.71,0,0,0,22.65,14.13Zm.46.38c.12.19.09.59-.06.67a.22.22,0,0,1-.29-.11.7.7,0,0,1,0-.57A.2.2,0,0,1,23.11,14.51Z" transform="translate(-17.49 -1.89)"/><path class="cls-3" d="M28.27,14.09a.53.53,0,0,0-.31.31c0,.09,0,.09.17.11s.2,0,.25,0a.29.29,0,0,1,.33-.07.19.19,0,0,1,.05.11c0,.08-.08.12-.51.23a.75.75,0,0,0-.25.13.33.33,0,0,0-.09.27.31.31,0,0,0,.12.3c.11.11.12.12.34.1s.24,0,.3-.09.1-.08.12,0a.2.2,0,0,1,0,.08s.08,0,.19,0h.2v-.45c0-.25,0-.52,0-.6a.47.47,0,0,0-.31-.38A1.51,1.51,0,0,0,28.27,14.09Zm.44,1.07a.23.23,0,0,1-.29.09.19.19,0,0,1-.05-.15c0-.1,0-.11.18-.19l.19-.07V15A.31.31,0,0,1,28.71,15.16Z" transform="translate(-17.49 -1.89)"/><path class="cls-3" d="M30.06,14.11a.61.61,0,0,0-.1.14c0,.05,0,.05,0-.05v-.11H29.5v1.43H30v-.37c0-.53.07-.73.27-.67s.07,0,.13-.16a.57.57,0,0,0,0-.21l-.15,0A.16.16,0,0,0,30.06,14.11Z" transform="translate(-17.49 -1.89)"/><path class="cls-3" d="M30.87,14.12a.69.69,0,0,0-.35.71.77.77,0,0,0,.24.6c.1.09.13.1.37.11a1,1,0,0,0,.38,0c.13-.06.33-.28.29-.32a.54.54,0,0,0-.22,0c-.15,0-.21,0-.24,0S31,15.2,31,15v-.08h.9l0-.24a.59.59,0,0,0-.62-.63A.63.63,0,0,0,30.87,14.12Zm.46.33a.37.37,0,0,1,.08.17c0,.08,0,.08-.23.08s-.22,0-.22-.08a.31.31,0,0,1,.24-.26A.19.19,0,0,1,31.33,14.45Z" transform="translate(-17.49 -1.89)"/><path class="cls-3" d="M34.9,14.11a.69.69,0,0,0-.4.62.82.82,0,0,0,.17.61.61.61,0,0,0,.5.21.58.58,0,0,0,.49-.21.75.75,0,0,0,.16-.55c0-.44-.21-.69-.6-.72A.61.61,0,0,0,34.9,14.11Zm.43.41a.6.6,0,0,1,.06.31c0,.18,0,.22-.09.3s-.1.09-.19.06-.18-.16-.18-.39a.38.38,0,0,1,.08-.28A.19.19,0,0,1,35.33,14.52Z" transform="translate(-17.49 -1.89)"/><path class="cls-3" d="M40.55,14.12a.7.7,0,0,0-.38.77.63.63,0,0,0,.29.56.48.48,0,0,0,.4.09.53.53,0,0,0,.54-.32,1.23,1.23,0,0,0,.05-.71A.65.65,0,0,0,40.55,14.12Zm.38.34c.08,0,.11.17.11.38s0,.22-.08.29-.17.1-.27,0a.57.57,0,0,1-.07-.52A.21.21,0,0,1,40.93,14.46Z" transform="translate(-17.49 -1.89)"/><path class="cls-3" d="M42.42,14.09a.34.34,0,0,0-.16.14l-.1.1v-.24h-.4v1.43h.39l0-.44a2.33,2.33,0,0,1,0-.49.16.16,0,0,1,.25-.07c.06.05.07.11.07.53v.47H43l0-.61c0-.5,0-.61-.07-.69A.4.4,0,0,0,42.42,14.09Z" transform="translate(-17.49 -1.89)"/><path class="cls-3" d="M43.5,14.12a.43.43,0,0,0-.22.53c.06.16.14.22.45.3s.39.15.29.26a.21.21,0,0,1-.33,0c-.06-.09-.08-.09-.26-.07l-.21,0s.13.27.24.33a1.14,1.14,0,0,0,.73,0,.43.43,0,0,0,.25-.41c0-.29-.13-.41-.52-.48s-.26-.06-.26-.13.14-.18.28-.07.12.07.28,0a.38.38,0,0,0,.18,0c0-.08-.17-.26-.27-.3A1,1,0,0,0,43.5,14.12Z" transform="translate(-17.49 -1.89)"/><path class="cls-3" d="M25.79,14.49c.07.22.17.53.22.7l.09.31h.41l.11-.43a2,2,0,0,1,.13-.41s.06.2.12.42l.11.4h.41l.2-.67c.11-.37.2-.7.21-.72s0,0-.19,0h-.2l-.06.23c0,.13-.07.33-.09.46a.5.5,0,0,1-.06.21s-.07-.21-.14-.46l-.12-.44h-.4l-.12.45c-.08.3-.13.43-.14.39s-.06-.24-.11-.46l-.08-.4h-.41Z" transform="translate(-17.49 -1.89)"/><path class="cls-3" d="M36.87,14.65c0,.6,0,.74.17.85a.45.45,0,0,0,.58-.14c.06-.06.06-.06.06,0v.12h.41V14.09h-.44v.45c0,.49,0,.6-.18.6s-.17-.08-.19-.58v-.47h-.4Z" transform="translate(-17.49 -1.89)"/><polygon class="cls-3" points="21.96 12.92 21.96 13.63 22.18 13.63 22.4 13.63 22.4 12.92 22.4 12.21 22.18 12.21 21.96 12.21 21.96 12.92"/><path class="cls-3" d="M47,14.1l.24.72.24.7h.2c.19,0,.19,0,.23-.11.18-.5.45-1.28.45-1.3a.66.66,0,0,0-.22,0H48l-.11.46a2.67,2.67,0,0,1-.14.44s-.06-.21-.12-.45l-.11-.43H47Z" transform="translate(-17.49 -1.89)"/><polygon class="cls-3" points="32.1 13.38 32.1 13.63 32.32 13.63 32.55 13.63 32.55 13.38 32.55 13.12 32.32 13.12 32.1 13.12 32.1 13.38"/><polygon class="cls-3" points="37.74 13.38 37.74 13.63 37.98 13.63 38.21 13.63 38.21 13.38 38.21 13.12 37.98 13.12 37.74 13.12 37.74 13.38"/></svg>