<svg xmlns:xodm="http://www.corel.com/coreldraw/odm/2003" xmlns="http://www.w3.org/2000/svg" xmlns:xlink="http://www.w3.org/1999/xlink" id="Layer_1" x="0px" y="0px" viewBox="0 0 275.7 116.5" style="enable-background:new 0 0 275.7 116.5;" xml:space="preserve">
<style type="text/css">
	.st0{fill:#002165;}
	.st1{fill-rule:evenodd;clip-rule:evenodd;fill:#002165;}
	.st2{enable-background:new    ;}
	.st3{fill:#FFC000;}
</style>
<polygon class="st0" points="24.2,42.9 24.2,39 4.8,39 4.8,42.9 12.4,42.9 12.4,67.5 16.6,67.5 16.6,42.9 "></polygon>
<polygon id="_x31_" class="st0" points="48.6,67.5 48.6,39 44.4,39 44.4,51.1 33.2,51.1 33.2,39 29,39 29,67.5 33.2,67.5 33.2,55   44.4,55 44.4,67.5 "></polygon>
<polygon id="_x32_" class="st0" points="60.1,67.5 60.1,39 55.9,39 55.9,67.5 "></polygon>
<polygon id="_x33_" class="st0" points="88.2,67.5 88.2,39 84,39 84,59 71.2,39 67.3,39 67.3,67.5 71.5,67.5 71.5,47.4 84.3,67.5   "></polygon>
<path id="_x34_" class="st0" d="M114.5,56.4V52h-10.1v3.7h5.9v1.6c0,1.8-0.4,3.3-1.4,4.5c-1.1,1.3-2.7,2-4.6,2  c-1.7,0-3.1-0.6-4.1-1.8c-1.4-1.5-1.6-3.2-1.6-8.9c0-5.6,0.3-7.4,1.6-8.9c1.1-1.1,2.5-1.8,4.1-1.8c3.1,0,5.1,1.8,5.8,5h4.2  c-0.7-4.8-4.2-8.8-10-8.8c-3,0-5.4,1-7.2,2.9c-2.7,2.8-2.8,5.6-2.8,11.6s0.1,8.8,2.8,11.6c1.8,1.8,4.1,2.9,7.2,2.9  c2.9,0,5.6-1,7.6-3.2C113.8,62.4,114.5,60.1,114.5,56.4z"></path>
<path id="_x35_" class="st0" d="M140.1,57.9V39h-4.2v18.7c0,3.8-2.3,6.2-5.8,6.2s-5.7-2.4-5.7-6.2V39h-4.2v18.9  c0,5.9,4.3,9.8,9.9,9.8C135.8,67.7,140.1,63.7,140.1,57.9L140.1,57.9z"></path>
<polygon id="_x36_" class="st0" points="164.4,67.5 164.4,63.6 151.1,63.6 151.1,39 146.9,39 146.9,67.5 "></polygon>
<path id="_x37_" class="st0" d="M189.6,67.5L179.4,39H176l-10.2,28.5h4.5l1.9-5.7h10.9l1.9,5.7H189.6z M182,58.1h-8.5l4.3-12.6  L182,58.1z"></path>
<path id="_x38_" class="st0" d="M213.7,67.5l-6.4-12.6c3.1-0.9,5.5-3.5,5.5-7.6c0-4.8-3.3-8.3-8.6-8.3h-10.7v28.5h4.2v-12h5.3  l5.8,12H213.7L213.7,67.5z M208.6,47.3c0,2.8-1.9,4.4-4.7,4.4h-6.2v-8.9h6.2C206.7,42.9,208.6,44.5,208.6,47.3z"></path>
<polygon id="_x39_" class="st0" points="223.2,67.5 223.2,39 219,39 219,67.5 "></polygon>
<polygon id="_x31_0" class="st0" points="247.4,42.9 247.4,39 228,39 228,42.9 235.6,42.9 235.6,67.5 239.8,67.5 239.8,42.9 "></polygon>
<polygon id="_x31_1" class="st0" points="269.9,39 265.4,39 259.6,51.5 253.8,39 249.2,39 257.5,55.7 257.5,67.5 261.7,67.5   261.7,55.7 "></polygon>
<path class="st1" d="M50.7,5.1C64,1.3,76.4,4,78.4,11s-7.2,15.8-20.5,19.6s-25.7,1.1-27.7-6C28.3,17.6,37.4,8.8,50.7,5.1z M51.7,9  C62.9,6,73.3,8.1,75,13.8s-6.1,12.8-17.3,15.8s-21.6,0.9-23.3-4.8C32.8,19.1,40.5,12,51.7,9z"></path>
<path class="st1" d="M53.5,13.2c9.3-2.3,17.8-0.4,18.9,4.2s-5.6,10.1-14.9,12.4s-17.8,0.4-18.9-4.2C37.5,21.1,44.1,15.5,53.5,13.2z   M54.9,16.3c7.3-1.8,13.8-0.3,14.7,3.2c0.9,3.6-4.3,7.9-11.6,9.6c-7.3,1.8-13.8,0.3-14.7-3.2C42.4,22.4,47.6,18.1,54.9,16.3z"></path>
<path class="st1" d="M56.7,20c4.3-0.9,8.1,0.5,8.6,3s-2.5,5.3-6.8,6.1c-4.3,0.9-8.1-0.5-8.6-3C49.3,23.6,52.4,20.9,56.7,20z   M57.6,22.7c2.1-0.4,4,0.3,4.3,1.5c0.3,1.3-1.3,2.6-3.4,3.1c-2.1,0.4-4-0.3-4.3-1.5C54,24.5,55.5,23.2,57.6,22.7z"></path>
<g class="st2">
	<path class="st0" d="M78.3,106.2c0.9,0.6,2.4,1,3.8,1c1.9,0,2.9-0.9,2.9-2.1s-0.8-1.9-2.8-2.7c-2.6-0.9-4.3-2.4-4.3-4.6   c0-2.6,2.1-4.6,5.6-4.6c1.7,0,3,0.3,3.8,0.8l-0.7,2.4c-0.6-0.3-1.7-0.8-3.1-0.8c-1.8,0-2.7,1-2.7,1.9c0,1.2,0.9,1.8,3,2.6   c2.8,1,4.2,2.5,4.2,4.7c0,2.6-1.9,4.7-6.1,4.7c-1.7,0-3.4-0.4-4.3-1L78.3,106.2z"></path>
	<path class="st0" d="M90.6,101.3c0-1.3,0-2.5-0.1-3.4h2.5l0.1,1.7h0.1c0.6-0.9,1.6-1.9,3.5-1.9c1.5,0,2.7,0.9,3.1,2.1l0,0   c0.4-0.7,0.9-1.1,1.5-1.5c0.7-0.4,1.3-0.7,2.4-0.7c1.9,0,3.8,1.3,3.8,4.9v6.7h-2.8v-6.3c0-1.9-0.7-3-2-3c-1,0-1.7,0.7-2,1.6   c-0.1,0.3-0.1,0.7-0.1,1v6.9h-2.8v-6.6c0-1.6-0.7-2.7-2-2.7c-1.1,0-1.8,0.9-2,1.7c-0.1,0.3-0.1,0.6-0.1,0.9v6.7h-2.8v-8.2H90.6z"></path>
	<path class="st0" d="M117,109.4l-0.2-1.2h-0.1c-0.7,0.9-1.9,1.6-3.4,1.6c-2.4,0-3.6-1.7-3.6-3.4c0-2.9,2.6-4.4,6.9-4.4v-0.2   c0-0.8-0.3-2-2.4-2c-1.1,0-2.4,0.3-3.1,0.9l-0.6-1.9c0.9-0.6,2.4-1,4.2-1c3.7,0,4.7,2.4,4.7,4.8v4.2c0,1,0,2,0.1,2.8H117V109.4z    M116.6,103.7c-2,0-4,0.4-4,2.1c0,1.1,0.8,1.7,1.7,1.7c1.1,0,2-0.8,2.2-1.6c0.1-0.2,0.1-0.4,0.1-0.7V103.7z"></path>
	<path class="st0" d="M122.6,101.5c0-1.6,0-2.7-0.1-3.7h2.5l0.1,2.2h0.1c0.6-1.6,1.9-2.5,3.1-2.5c0.3,0,0.4,0,0.7,0.1v2.7   c-0.2,0-0.4-0.1-0.9-0.1c-1.3,0-2.4,0.9-2.6,2.2c0,0.2-0.1,0.6-0.1,0.9v6h-2.9v-7.9H122.6z"></path>
	<path class="st0" d="M134.8,94.5v3.3h2.8v2.1h-2.8v5.1c0,1.3,0.3,2.1,1.5,2.1c0.4,0,0.9-0.1,1.1-0.1v2.2c-0.4,0.1-1.1,0.3-2.1,0.3   s-1.9-0.3-2.5-0.9c-0.6-0.7-0.9-1.7-0.9-3.3V100h-1.7v-2.1h1.7v-2.6L134.8,94.5z"></path>
	<path class="st0" d="M139.8,101.3c0-1.3,0-2.5-0.1-3.4h2.6l0.1,1.7h0.1c0.4-0.9,1.8-2,3.7-2c2,0,4,1.3,4,4.9v6.9h-2.9v-6.5   c0-1.7-0.6-2.9-2.2-2.9c-1.1,0-1.9,0.8-2.2,1.7c-0.1,0.2-0.1,0.6-0.1,0.9v6.7h-2.9V101.3z"></path>
	<path class="st0" d="M155.3,104.4c0.1,2,1.7,2.9,3.5,2.9c1.3,0,2.4-0.2,3.1-0.6l0.4,2c-1,0.4-2.4,0.7-4,0.7c-3.7,0-6-2.2-6-5.8   c0-3.1,1.9-6.2,5.6-6.2c3.7,0,4.9,3,4.9,5.6c0,0.6,0,1-0.1,1.2h-7.5V104.4z M160.3,102.4c0-1-0.4-2.8-2.4-2.8   c-1.8,0-2.6,1.6-2.7,2.8H160.3z"></path>
	<path class="st0" d="M165.3,106.7c0.7,0.4,1.9,0.8,2.9,0.8c1.2,0,1.8-0.6,1.8-1.2c0-0.8-0.4-1.1-1.9-1.7c-2.2-0.8-3.1-2-3.1-3.4   c0-2,1.7-3.6,4.4-3.6c1.2,0,2.4,0.3,3,0.7l-0.6,2c-0.4-0.3-1.5-0.7-2.5-0.7c-1,0-1.6,0.4-1.6,1.2c0,0.8,0.6,1.1,2,1.6   c2,0.8,3,1.8,3,3.5c0,2-1.6,3.6-4.7,3.6c-1.3,0-2.7-0.3-3.5-0.8L165.3,106.7z"></path>
	<path class="st0" d="M175.1,106.7c0.7,0.4,1.9,0.8,2.9,0.8c1.2,0,1.8-0.6,1.8-1.2c0-0.8-0.4-1.1-1.9-1.7c-2.2-0.8-3.1-2-3.1-3.4   c0-2,1.7-3.6,4.4-3.6c1.2,0,2.4,0.3,3,0.7l-0.6,2c-0.4-0.3-1.5-0.7-2.5-0.7s-1.6,0.4-1.6,1.2c0,0.8,0.6,1.1,2,1.6   c2,0.8,3,1.8,3,3.5c0,2-1.6,3.6-4.7,3.6c-1.3,0-2.7-0.3-3.5-0.8L175.1,106.7z"></path>
	<path class="st0" d="M199,102.3h-6v4.7h6.7v2.4h-9.5v-16h9.2v2.4h-6.3v4.2h6v2.4H199z"></path>
	<path class="st0" d="M202.1,101.3c0-1.3,0-2.5-0.1-3.4h2.6l0.1,1.7h0.1c0.4-0.9,1.8-2,3.7-2c2,0,4,1.3,4,4.9v6.9h-2.9v-6.5   c0-1.7-0.6-2.9-2.2-2.9c-1.1,0-1.9,0.8-2.2,1.7c-0.1,0.2-0.1,0.6-0.1,0.9v6.7h-2.9V101.3z"></path>
	<path class="st0" d="M222.1,109.4l-0.2-1.2h-0.1c-0.7,0.9-1.9,1.6-3.4,1.6c-2.4,0-3.6-1.7-3.6-3.4c0-2.9,2.6-4.4,6.9-4.4v-0.2   c0-0.8-0.3-2-2.4-2c-1.1,0-2.4,0.3-3.1,0.9l-0.6-1.9c0.9-0.6,2.4-1,4.2-1c3.7,0,4.7,2.4,4.7,4.8v4.2c0,1,0,2,0.1,2.8h-2.5V109.4z    M221.7,103.7c-2,0-4,0.4-4,2.1c0,1.1,0.8,1.7,1.7,1.7c1.1,0,2-0.8,2.2-1.6c0.1-0.2,0.1-0.4,0.1-0.7V103.7z"></path>
	<path class="st0" d="M227.5,109.4c0-0.8,0.1-2,0.1-3.3V92.6h2.9v6.9l0,0c0.7-1.1,1.9-1.8,3.7-1.8c2.8,0,4.8,2.4,4.8,5.8   c0,4.2-2.6,6.2-5.2,6.2c-1.5,0-2.8-0.6-3.6-2l0,0l-0.1,1.7C230.2,109.4,227.5,109.4,227.5,109.4z M230.5,104.6c0,0.2,0,0.4,0.1,0.7   c0.3,1.1,1.3,2,2.6,2c1.8,0,2.9-1.5,2.9-3.8c0-2-1-3.7-2.9-3.7c-1.1,0-2.2,0.9-2.6,2.1c0,0.2-0.1,0.4-0.1,0.8V104.6z"></path>
	<path class="st0" d="M241.4,92.6h2.9v16.7h-2.9V92.6z"></path>
	<path class="st0" d="M249.5,104.4c0.1,2,1.7,2.9,3.5,2.9c1.3,0,2.4-0.2,3.1-0.6l0.4,2c-1,0.4-2.4,0.7-4,0.7c-3.7,0-6-2.2-6-5.8   c0-3.1,1.9-6.2,5.6-6.2c3.7,0,4.9,3,4.9,5.6c0,0.6,0,1-0.1,1.2h-7.5V104.4z M254.6,102.4c0-1-0.4-2.8-2.4-2.8   c-1.8,0-2.6,1.6-2.7,2.8H254.6z"></path>
	<path class="st0" d="M270.2,92.6v13.5c0,1.2,0,2.5,0.1,3.3h-2.6l-0.1-1.8l0,0c-0.7,1.2-2,2-3.7,2c-2.7,0-4.9-2.4-4.9-5.8   c0-3.8,2.4-6.2,5.2-6.2c1.6,0,2.7,0.7,3.3,1.5l0,0v-6.5h2.8V92.6z M267.4,102.6c0-0.2,0-0.6-0.1-0.8c-0.2-1.1-1.1-2-2.5-2   c-1.9,0-2.9,1.7-2.9,3.8s1,3.6,2.9,3.6c1.2,0,2.2-0.8,2.5-2c0.1-0.2,0.1-0.6,0.1-0.9V102.6z"></path>
</g>
<g>
	<rect x="77.8" y="80.1" class="st3" width="192.1" height="3"></rect>
</g>
</svg>